<?xml version="1.0" encoding="UTF-8"?>
<svg id="Layer_1" data-name="Layer 1" xmlns="http://www.w3.org/2000/svg" version="1.1" viewBox="0 0 852.1 1089.9">
  <defs>
    <style>
      .cls-1 {
        fill: none;
        stroke: #fcef3a;
        stroke-linecap: round;
        stroke-linejoin: round;
        stroke-width: 20px;
      }
    </style>
  </defs>
  <path class="cls-1" d="M569.1,209.9v3c4,1.1,5.8,3.6,9,5,21.6,9.7,24,16,30,41,2.3,1,3.7,2.1,6,3,11.3-15.1,49.8-3.5,50,15,1.6,1.7,1.6,9,3,13,1.6.5,6.7,0,9,1,3.6,1.6,8.6,6.6,13,8,1.8.6,7-1,7-1,12.4,9,27.3,17,41,27,4.2,3.1,5.5,8.2,9,12,2.7,2.9,6.9,4.5,10,7,6,4.8,9,17.5,9,28-3.1,1.7-6.5,2.1-12,2-1.9-1.4-4.5-1.8-6-1-3.7,1.9-4.9,3.4-5,9,5.4,6.6,6.4,23.1,10,32,1.8,4.4,5.5,15.8,8,20,2.1,3.5,6.6,7.9,8,12,2.4,6.8.6,12.2,3,19,2.3,6.6,8,12.1,11,18,3.5,6.8,3.5,14.2,8,20,6.7,8.7,13.7,19.8,22,27,5,4.3,10.6,4.9,12,13-6.5,6.7-8.9,17.8-18,22-4.3,2-7.8.4-13,2-7.4,2.2-22.3,5.3-32,8-6.3.7-12.7,1.3-19,2-15,6.9-36,32.5-35,53,3.2,1,28.4,18.6,30,21l3,15,4,4c-3.4,5.4-8.1,28.3-9,39,5,5,8,12,13,17,6,5.9,16.5,7.6,21,15,4.6,7.6,3.1,17.6,7,26,1.3,2.8,5.7,5.3,6,10,.3,5.5-16.8,36.2-20,44-5.4,13.1-3.7,28.4-11,39-5.5,7.9-11.9,5.3-18,9-11.3,6.8-25.6,25.2-25,40h-3c-4.6,9-17.2,10-23,18-3.2,4.4-8.6,13-10,18-1,3.7,1.1,9.6-2,15-7.4,13-33.5,31.6-47,36-15,4.8-35.7-1.2-47-7-2.2-1.1-5.7-5.1-8-6-2.2-.8-2.7.9-4,1-11.2.7-21.6-.7-30,5s-19.2,24-31,26c-7.6,1.3-35.4-3.6-38-2-8.6,2.9-16.5,14.8-21,22-.7,2-1.3,4-2,6-7.4,8.1-20.8,16.2-35,17-6.6-6.4-17.7-9.5-25-15-13.2-9.8-23.1-23.7-34-36-5.3-6-13.3-11.7-15-21-7-1.4-12.5-11.9-20-11-11.3,1.3-38.5,14-49,10-12-4.5-19.5-15.9-29-23-6.2-4.6-12.9-7.2-19-12-5.1-4-7.9-11.1-15-14-3.7-.3-7.3-.7-11-1-12.5-3.4-27-6.1-34-15-5.7-7.2-10.1-19.6-13-29-.7-2.3.9-2.7,1-4,.8-7.2-1.2-12.3-4-16-.8-1-6-5.5-7-6-1.6-.8-4.9,1.1-5,1-.3-1.3-.7-2.7-1-4-3.2-4.2-11-11-16-13-3-.3-6-.7-9-1-5.5-1.7-13.7-5.9-17-10-2.3-2.9-1.6-7.3-3-11-2.9-7.6-6.9-20.7-12-27-7.1-8.8-14.6-18.3-22-27-2.4-2.9-2.6-7.1-5-10-.6-.7-3.5-1.3-4-2-2.7-4.2-3.6-14-6-19-1.5-3.3-14-22.6-13-26,3.9-13.8,10.5-36.6,25-45,11.4-6.6,37.4-9.9,42-22-9.5-6.9-13.9-24.3-19-36-3-6.9-8.4-12.3-12-18-5.6-8.8-6.5-19.1-11-29-3.4-7.5-9.5-12.5-10-23,5.3-5.3,10.7-10.7,16-16,4.7-3.1,9.8-3.2,15-6,10.1-5.4,22.6-19.3,27-28,8.2-15.9-10.2-24.5-5-42,3.5-11.8,9.2-14.6,18-21,2.7-2,3.7-5.7,6-8,2.6-2.6,8.2-3.8,10-7,3-5.4-1.8-12.8,2-18,3.8-4.4,16.5-12.9,22-15,4.3-.7,8.7-1.3,13-2,4.8-2.5,15.1-15.4,19-20,4.4-5.1,12-7.6,13-16,1.5-1.9,1.8-3.6,2-7-9.1,1-16.7,8.3-24,11-4.2,1.5-7.3-1.7-11-1-3.6.6-11.3,4.8-15,3-2.2-1.9-1.2-2.2-5-3-3.3,4.7-21.7-.8-28-4-.7-1-1.3-2-2-3-.6-.2-14.5,1.4-19,1-1.9-3.1-4.6-4.6-6-8,2-2.9.7-8.9,0-12-9.6-1-19.1-4.2-27-5-1.5-4.1-3.4-3.6-4-9-.6-1,0-1.9,0-5-5.5-.7-7.8-3.1-11-6,1.7-8.5,8.1-33.9,12-38,9.5-9.8,19.9-3.8,27-21,1.8-4.4-.2-6.1-1-9-1.5-5.1,2.9-9.1,2-13-.6-2.8-3.1-13.8,1-21,6.5-11.4,35.2-21,36-34-5.3-4.2-1-9.3,1-14,4.2-10,11.9-16.2,26-16,.7-4.5,1.7-10.9,5-15,3.2-2.7,8.3-2.6,12-5,4.8-3.1,8.4-9.8,14-12,5.6-2.2,8.9,1.4,12-4,1.8-2.6,1.3-6.2,3-9,1-1.7,10.3-11.8,12-13,3.1-2.2,6.2-1.1,10-3,.7-1,1.3-2,2-3,5.7-3.5,10.1-4.8,16-8,6.8-3.7,11.6-11.1,20-14,5.2-1.8,6.8,2,12,0,1.7-.7,4.5-4.3,6-5,4.3-2,13.8,1.7,16,3,6.5-.9,11.5-9.1,21-6,16.4,5.3,20.9,24.8,38,25,1.2-3.8,2.2-4.6,7-5,2.5,1.1,10.9-1.8,16,0,4.9,1.7,23.4,14.4,25,19,2.6,4.2-1.3,11,0,14,4.4,3.4,8.7.8,13,3,3.6,1.9,3.8,5.7,9,7,2.6-4.3,5.5-8.4,12-9,3.6-2.3,16-1.5,20,0,3.8,1.4,25.6,26.4,27,30-.3,4.3-.7,8.7-1,13,.3,1.2,1.6,3.1,2,5,6,2.8,6.1,9,11,12,5.2,3.2,11.1,3.6,16,7,6.5,4.5,12.4,11.5,19,16-1,5.8-1.1,4.7-1,13,5.1,3,11.2,7.2,17,9l3-3c.5,3.1,1.2,4.3,2,5,3.4-1.8,20,12.5,28,13h0Z"/>
</svg>