<svg width="498" height="43" viewBox="0 0 498 43" fill="none" xmlns="http://www.w3.org/2000/svg">
<path d="M10 0H488L498 43H0L10 0Z" fill="#FCEF3A"/>
<path d="M180.576 13.8388H185.414C186.122 13.8388 186.738 14.0974 187.263 14.6147C187.795 15.1244 188.062 15.7064 188.062 16.3606C188.062 16.6878 187.97 16.954 187.788 17.1594C187.605 17.3572 187.369 17.4561 187.08 17.4561C186.799 17.4561 186.582 17.3838 186.43 17.2393C186.278 17.0872 186.152 16.7714 186.053 16.2922C186.03 16.1705 185.954 16.0602 185.825 15.9613C185.696 15.8548 185.559 15.8015 185.414 15.8015H180.576C180.523 15.8015 180.469 15.8281 180.416 15.8814C180.37 15.927 180.348 15.9765 180.348 16.0297C180.348 16.0525 180.351 16.0792 180.359 16.1096C180.374 16.1324 180.393 16.1629 180.416 16.2009L187.457 25.2385C187.662 25.5124 187.814 25.7748 187.913 26.0259C188.012 26.2769 188.062 26.5318 188.062 26.7904C188.062 27.3914 187.845 27.9049 187.411 28.3309C186.985 28.7645 186.468 28.9814 185.859 28.9814H181.021C180.321 28.9814 179.705 28.7227 179.172 28.2054C178.647 27.6881 178.385 27.1061 178.385 26.4595C178.385 26.1324 178.476 25.8699 178.659 25.6721C178.841 25.4667 179.077 25.364 179.366 25.364C179.64 25.364 179.853 25.4401 180.005 25.5923C180.157 25.7368 180.287 26.0487 180.393 26.528C180.416 26.6497 180.492 26.7638 180.622 26.8703C180.751 26.9692 180.884 27.0186 181.021 27.0186H185.859C185.928 27.0186 185.985 26.9958 186.03 26.9502C186.076 26.9045 186.099 26.8513 186.099 26.7904C186.099 26.7676 186.091 26.7448 186.076 26.722C186.068 26.6915 186.053 26.6573 186.03 26.6193L178.99 17.5816C178.784 17.3078 178.632 17.0453 178.533 16.7943C178.434 16.5432 178.385 16.2884 178.385 16.0297C178.385 15.4287 178.598 14.9152 179.024 14.4892C179.458 14.0556 179.975 13.8388 180.576 13.8388ZM195.607 28.9814C194.998 28.9814 194.469 28.833 194.02 28.5363C193.579 28.2396 193.199 27.7718 192.879 27.1328L190.848 23.0932C190.726 22.8574 190.635 22.6025 190.574 22.3287C190.521 22.0548 190.494 21.7581 190.494 21.4386C190.494 21.1039 190.521 20.792 190.574 20.5029C190.635 20.2138 190.726 19.9552 190.848 19.7269L192.879 15.6874C193.184 15.056 193.56 14.5919 194.009 14.2952C194.458 13.9909 194.99 13.8388 195.607 13.8388H199.076C199.403 13.8388 199.665 13.9301 199.863 14.1127C200.068 14.2952 200.171 14.5311 200.171 14.8201C200.171 15.1016 200.068 15.3374 199.863 15.5276C199.658 15.7102 199.395 15.8015 199.076 15.8015H195.607C195.416 15.8015 195.238 15.8548 195.07 15.9613C194.903 16.0678 194.77 16.2161 194.671 16.4063L192.663 20.4801C192.602 20.617 192.556 20.7615 192.526 20.9137C192.495 21.0658 192.48 21.2294 192.48 21.4044C192.48 21.5869 192.495 21.7543 192.526 21.9065C192.556 22.0586 192.602 22.2031 192.663 22.3401L194.671 26.391C194.77 26.5812 194.903 26.7334 195.07 26.8475C195.238 26.9616 195.416 27.0186 195.607 27.0186H199.076C199.403 27.0186 199.665 27.1099 199.863 27.2925C200.068 27.4751 200.171 27.7109 200.171 28C200.171 28.2891 200.068 28.5249 199.863 28.7075C199.658 28.8901 199.395 28.9814 199.076 28.9814H195.607ZM204.567 15.8015V18.7912H209.314C209.58 18.7912 209.808 18.6885 209.998 18.4831C210.196 18.2777 210.295 18.0457 210.295 17.787V16.7829C210.295 16.5242 210.196 16.296 209.998 16.0982C209.801 15.9004 209.572 15.8015 209.314 15.8015H204.567ZM202.604 13.8388H209.314C210.12 13.8388 210.816 14.1279 211.402 14.706C211.988 15.2842 212.281 15.9765 212.281 16.7829V17.787C212.281 18.601 211.991 19.3009 211.413 19.8867C210.835 20.4648 210.135 20.7539 209.314 20.7539H208.264L212.087 27.418C212.155 27.5321 212.204 27.6348 212.235 27.7261C212.265 27.8174 212.281 27.9011 212.281 27.9772C212.281 28.251 212.185 28.4831 211.995 28.6733C211.805 28.8634 211.573 28.9585 211.299 28.9585C211.109 28.9585 210.934 28.9091 210.774 28.8102C210.615 28.7113 210.485 28.5744 210.386 28.3994L205.97 20.7539H204.567V27.8859C204.567 28.213 204.475 28.4755 204.293 28.6733C204.11 28.8787 203.874 28.9814 203.585 28.9814C203.296 28.9814 203.06 28.8787 202.878 28.6733C202.695 28.4679 202.604 28.2054 202.604 27.8859V13.8388ZM220.065 16.1781C219.982 16.0335 219.902 15.9346 219.826 15.8814C219.757 15.8281 219.666 15.8015 219.552 15.8015C219.445 15.8015 219.343 15.8357 219.244 15.9042C219.145 15.9727 219.069 16.0602 219.015 16.1667L216.904 20.3203C216.836 20.4572 216.779 20.6246 216.733 20.8224C216.695 21.0202 216.676 21.2142 216.676 21.4044C216.676 21.6022 216.695 21.8 216.733 21.9977C216.779 22.1955 216.836 22.3629 216.904 22.4998L219.038 26.6421C219.114 26.7866 219.19 26.8855 219.266 26.9388C219.343 26.992 219.438 27.0186 219.552 27.0186C219.658 27.0186 219.761 26.9882 219.86 26.9274C219.959 26.8589 220.035 26.7638 220.088 26.6421L222.188 22.5112C222.256 22.3743 222.313 22.2069 222.359 22.0092C222.405 21.8038 222.427 21.6022 222.427 21.4044C222.427 21.2066 222.405 21.005 222.359 20.7996C222.313 20.5942 222.256 20.4306 222.188 20.3089L220.065 16.1781ZM221.937 15.4934L223.968 19.4987C224.097 19.7498 224.2 20.0426 224.276 20.3774C224.352 20.7121 224.39 21.0544 224.39 21.4044C224.39 21.7619 224.352 22.1081 224.276 22.4428C224.2 22.7775 224.097 23.0704 223.968 23.3214L221.937 27.3267C221.617 27.9277 221.275 28.3537 220.91 28.6048C220.544 28.8558 220.092 28.9814 219.552 28.9814C219.004 28.9814 218.548 28.8558 218.182 28.6048C217.817 28.3537 217.479 27.9277 217.167 27.3267L215.136 23.3214C214.999 23.0552 214.892 22.7585 214.816 22.4314C214.748 22.0966 214.713 21.7543 214.713 21.4044C214.713 21.0544 214.748 20.7121 214.816 20.3774C214.892 20.0426 214.999 19.7498 215.136 19.4987L217.167 15.4934C217.479 14.8924 217.817 14.4664 218.182 14.2154C218.548 13.9643 219.004 13.8388 219.552 13.8388C220.092 13.8388 220.544 13.9643 220.91 14.2154C221.275 14.4664 221.617 14.8924 221.937 15.4934ZM228.786 14.9343V27.0186H235.404C235.731 27.0186 235.994 27.1099 236.191 27.2925C236.397 27.4751 236.5 27.7109 236.5 28C236.5 28.2891 236.397 28.5249 236.191 28.7075C235.986 28.8901 235.724 28.9814 235.404 28.9814H226.823V14.9343C226.823 14.5995 226.91 14.3333 227.085 14.1355C227.268 13.9377 227.508 13.8388 227.804 13.8388C228.086 13.8388 228.318 13.9415 228.5 14.1469C228.691 14.3523 228.786 14.6147 228.786 14.9343ZM240.895 14.9343V27.0186H247.514C247.841 27.0186 248.103 27.1099 248.301 27.2925C248.506 27.4751 248.609 27.7109 248.609 28C248.609 28.2891 248.506 28.5249 248.301 28.7075C248.096 28.8901 247.833 28.9814 247.514 28.9814H238.932V14.9343C238.932 14.5995 239.02 14.3333 239.195 14.1355C239.377 13.9377 239.617 13.8388 239.914 13.8388C240.195 13.8388 240.427 13.9415 240.61 14.1469C240.8 14.3523 240.895 14.6147 240.895 14.9343ZM255.94 13.8388H265.616V16.3606C265.616 16.6878 265.525 16.954 265.342 17.1594C265.16 17.3572 264.924 17.4561 264.635 17.4561C264.346 17.4561 264.11 17.3534 263.927 17.148C263.745 16.9426 263.653 16.6802 263.653 16.3606V15.8015H261.759V27.8859C261.759 28.213 261.668 28.4755 261.485 28.6733C261.303 28.8787 261.067 28.9814 260.778 28.9814C260.489 28.9814 260.253 28.8787 260.07 28.6733C259.888 28.4679 259.797 28.2054 259.797 27.8859V15.8015H257.902V16.3606C257.902 16.6878 257.811 16.954 257.628 17.1594C257.446 17.3572 257.21 17.4561 256.921 17.4561C256.632 17.4561 256.396 17.3534 256.213 17.148C256.031 16.9426 255.94 16.6802 255.94 16.3606V13.8388ZM273.401 16.1781C273.317 16.0335 273.237 15.9346 273.161 15.8814C273.093 15.8281 273.001 15.8015 272.887 15.8015C272.781 15.8015 272.678 15.8357 272.579 15.9042C272.48 15.9727 272.404 16.0602 272.351 16.1667L270.24 20.3203C270.172 20.4572 270.114 20.6246 270.069 20.8224C270.031 21.0202 270.012 21.2142 270.012 21.4044C270.012 21.6022 270.031 21.8 270.069 21.9977C270.114 22.1955 270.172 22.3629 270.24 22.4998L272.374 26.6421C272.45 26.7866 272.526 26.8855 272.602 26.9388C272.678 26.992 272.773 27.0186 272.887 27.0186C272.994 27.0186 273.097 26.9882 273.195 26.9274C273.294 26.8589 273.37 26.7638 273.424 26.6421L275.523 22.5112C275.592 22.3743 275.649 22.2069 275.695 22.0092C275.74 21.8038 275.763 21.6022 275.763 21.4044C275.763 21.2066 275.74 21.005 275.695 20.7996C275.649 20.5942 275.592 20.4306 275.523 20.3089L273.401 16.1781ZM275.272 15.4934L277.303 19.4987C277.433 19.7498 277.536 20.0426 277.612 20.3774C277.688 20.7121 277.726 21.0544 277.726 21.4044C277.726 21.7619 277.688 22.1081 277.612 22.4428C277.536 22.7775 277.433 23.0704 277.303 23.3214L275.272 27.3267C274.953 27.9277 274.61 28.3537 274.245 28.6048C273.88 28.8558 273.427 28.9814 272.887 28.9814C272.34 28.9814 271.883 28.8558 271.518 28.6048C271.153 28.3537 270.814 27.9277 270.502 27.3267L268.471 23.3214C268.334 23.0552 268.228 22.7585 268.152 22.4314C268.083 22.0966 268.049 21.7543 268.049 21.4044C268.049 21.0544 268.083 20.7121 268.152 20.3774C268.228 20.0426 268.334 19.7498 268.471 19.4987L270.502 15.4934C270.814 14.8924 271.153 14.4664 271.518 14.2154C271.883 13.9643 272.34 13.8388 272.887 13.8388C273.427 13.8388 273.88 13.9643 274.245 14.2154C274.61 14.4664 274.953 14.8924 275.272 15.4934ZM285.056 13.8388H293.637C293.964 13.8388 294.227 13.9301 294.425 14.1127C294.63 14.2952 294.733 14.5311 294.733 14.8201C294.733 15.1016 294.63 15.3374 294.425 15.5276C294.219 15.7102 293.957 15.8015 293.637 15.8015H287.019V20.423H289.803C290.123 20.423 290.381 20.5143 290.579 20.6969C290.777 20.8795 290.876 21.1153 290.876 21.4044C290.876 21.6934 290.777 21.9293 290.579 22.1119C290.381 22.2944 290.123 22.3857 289.803 22.3857H287.019V27.0186H293.637C293.964 27.0186 294.227 27.1099 294.425 27.2925C294.63 27.4751 294.733 27.7109 294.733 28C294.733 28.2891 294.63 28.5249 294.425 28.7075C294.219 28.8901 293.957 28.9814 293.637 28.9814H285.056V13.8388ZM299.06 14.3979L302.004 19.4645L304.948 14.3979C305.062 14.2077 305.195 14.067 305.347 13.9757C305.5 13.8844 305.671 13.8388 305.861 13.8388C306.127 13.8388 306.355 13.9339 306.546 14.1241C306.743 14.3066 306.842 14.5387 306.842 14.8201C306.842 14.9038 306.823 14.9951 306.785 15.094C306.755 15.1929 306.709 15.288 306.648 15.3793L303.122 21.4044L306.648 27.4294C306.724 27.5664 306.774 27.6767 306.797 27.7604C306.827 27.844 306.842 27.9239 306.842 28C306.842 28.2739 306.743 28.5097 306.546 28.7075C306.348 28.9053 306.12 29.0042 305.861 29.0042C305.694 29.0042 305.53 28.9509 305.37 28.8444C305.218 28.7455 305.085 28.6048 304.971 28.4222L301.981 23.3671L299.014 28.4222C298.885 28.62 298.748 28.7645 298.603 28.8558C298.459 28.9547 298.299 29.0042 298.124 29.0042C297.858 29.0042 297.63 28.9091 297.44 28.7189C297.257 28.5287 297.166 28.2891 297.166 28C297.166 27.9087 297.177 27.8136 297.2 27.7147C297.23 27.6158 297.272 27.5245 297.325 27.4409L300.829 21.4614L297.36 15.3907C297.284 15.269 297.23 15.1663 297.2 15.0826C297.177 14.9989 297.166 14.9114 297.166 14.8201C297.166 14.5387 297.261 14.3066 297.451 14.1241C297.641 13.9339 297.873 13.8388 298.147 13.8388C298.322 13.8388 298.493 13.8882 298.661 13.9871C298.828 14.086 298.961 14.223 299.06 14.3979ZM311.238 15.8015V21.2446H315.985C316.251 21.2446 316.479 21.1457 316.67 20.9479C316.867 20.7501 316.966 20.5219 316.966 20.2633V16.7829C316.966 16.5242 316.867 16.296 316.67 16.0982C316.479 15.9004 316.251 15.8015 315.985 15.8015H311.238ZM309.275 13.8388H315.985C316.791 13.8388 317.487 14.1279 318.073 14.706C318.659 15.2842 318.952 15.9765 318.952 16.7829V20.2633C318.952 21.0772 318.663 21.7771 318.085 22.3629C317.506 22.9411 316.807 23.2301 315.985 23.2301H311.238V27.8859C311.238 28.213 311.147 28.4755 310.964 28.6733C310.781 28.8787 310.546 28.9814 310.257 28.9814C309.967 28.9814 309.732 28.8787 309.549 28.6733C309.366 28.4679 309.275 28.2054 309.275 27.8859V13.8388ZM323.347 14.9343V27.0186H329.966C330.293 27.0186 330.555 27.1099 330.753 27.2925C330.959 27.4751 331.061 27.7109 331.061 28C331.061 28.2891 330.959 28.5249 330.753 28.7075C330.548 28.8901 330.285 28.9814 329.966 28.9814H321.385V14.9343C321.385 14.5995 321.472 14.3333 321.647 14.1355C321.83 13.9377 322.069 13.8388 322.366 13.8388C322.648 13.8388 322.88 13.9415 323.062 14.1469C323.252 14.3523 323.347 14.6147 323.347 14.9343ZM338.846 16.1781C338.762 16.0335 338.682 15.9346 338.606 15.8814C338.538 15.8281 338.447 15.8015 338.333 15.8015C338.226 15.8015 338.123 15.8357 338.024 15.9042C337.926 15.9727 337.849 16.0602 337.796 16.1667L335.685 20.3203C335.617 20.4572 335.56 20.6246 335.514 20.8224C335.476 21.0202 335.457 21.2142 335.457 21.4044C335.457 21.6022 335.476 21.8 335.514 21.9977C335.56 22.1955 335.617 22.3629 335.685 22.4998L337.819 26.6421C337.895 26.7866 337.971 26.8855 338.047 26.9388C338.123 26.992 338.218 27.0186 338.333 27.0186C338.439 27.0186 338.542 26.9882 338.641 26.9274C338.739 26.8589 338.816 26.7638 338.869 26.6421L340.968 22.5112C341.037 22.3743 341.094 22.2069 341.14 22.0092C341.185 21.8038 341.208 21.6022 341.208 21.4044C341.208 21.2066 341.185 21.005 341.14 20.7996C341.094 20.5942 341.037 20.4306 340.968 20.3089L338.846 16.1781ZM340.717 15.4934L342.749 19.4987C342.878 19.7498 342.981 20.0426 343.057 20.3774C343.133 20.7121 343.171 21.0544 343.171 21.4044C343.171 21.7619 343.133 22.1081 343.057 22.4428C342.981 22.7775 342.878 23.0704 342.749 23.3214L340.717 27.3267C340.398 27.9277 340.056 28.3537 339.69 28.6048C339.325 28.8558 338.873 28.9814 338.333 28.9814C337.785 28.9814 337.328 28.8558 336.963 28.6048C336.598 28.3537 336.259 27.9277 335.948 27.3267L333.916 23.3214C333.779 23.0552 333.673 22.7585 333.597 22.4314C333.528 22.0966 333.494 21.7543 333.494 21.4044C333.494 21.0544 333.528 20.7121 333.597 20.3774C333.673 20.0426 333.779 19.7498 333.916 19.4987L335.948 15.4934C336.259 14.8924 336.598 14.4664 336.963 14.2154C337.328 13.9643 337.785 13.8388 338.333 13.8388C338.873 13.8388 339.325 13.9643 339.69 14.2154C340.056 14.4664 340.398 14.8924 340.717 15.4934ZM347.566 15.8015V18.7912H352.313C352.58 18.7912 352.808 18.6885 352.998 18.4831C353.196 18.2777 353.295 18.0457 353.295 17.787V16.7829C353.295 16.5242 353.196 16.296 352.998 16.0982C352.8 15.9004 352.572 15.8015 352.313 15.8015H347.566ZM345.604 13.8388H352.313C353.12 13.8388 353.816 14.1279 354.402 14.706C354.987 15.2842 355.28 15.9765 355.28 16.7829V17.787C355.28 18.601 354.991 19.3009 354.413 19.8867C353.835 20.4648 353.135 20.7539 352.313 20.7539H351.264L355.086 27.418C355.155 27.5321 355.204 27.6348 355.235 27.7261C355.265 27.8174 355.28 27.9011 355.28 27.9772C355.28 28.251 355.185 28.4831 354.995 28.6733C354.805 28.8634 354.573 28.9585 354.299 28.9585C354.109 28.9585 353.934 28.9091 353.774 28.8102C353.614 28.7113 353.485 28.5744 353.386 28.3994L348.97 20.7539H347.566V27.8859C347.566 28.213 347.475 28.4755 347.293 28.6733C347.11 28.8787 346.874 28.9814 346.585 28.9814C346.296 28.9814 346.06 28.8787 345.878 28.6733C345.695 28.4679 345.604 28.2054 345.604 27.8859V13.8388ZM357.713 13.8388H366.294C366.621 13.8388 366.884 13.9301 367.082 14.1127C367.287 14.2952 367.39 14.5311 367.39 14.8201C367.39 15.1016 367.287 15.3374 367.082 15.5276C366.876 15.7102 366.614 15.8015 366.294 15.8015H359.676V20.423H362.46C362.78 20.423 363.038 20.5143 363.236 20.6969C363.434 20.8795 363.533 21.1153 363.533 21.4044C363.533 21.6934 363.434 21.9293 363.236 22.1119C363.038 22.2944 362.78 22.3857 362.46 22.3857H359.676V27.0186H366.294C366.621 27.0186 366.884 27.1099 367.082 27.2925C367.287 27.4751 367.39 27.7109 367.39 28C367.39 28.2891 367.287 28.5249 367.082 28.7075C366.876 28.8901 366.614 28.9814 366.294 28.9814H357.713V13.8388Z" fill="#241B1B"/>
<path d="M157.859 11H156.141C154.127 11 153.047 11.2785 152.069 11.8014C151.092 12.3243 150.324 13.0917 149.801 14.0695C149.278 15.0472 149 16.1272 149 18.1411V23.8589C149 25.8728 149.278 26.9528 149.801 27.9305C150.324 28.9083 151.092 29.6757 152.069 30.1986C153.047 30.7215 154.127 31 156.141 31H157.859C159.873 31 160.953 30.7215 161.931 30.1986C162.908 29.6757 163.676 28.9083 164.199 27.9305C164.722 26.9528 165 25.8728 165 23.8589V18.1411C165 16.1272 164.722 15.0472 164.199 14.0695C163.676 13.0917 162.908 12.3243 161.931 11.8014C160.953 11.2785 159.873 11 157.859 11ZM156 20V15H158V20H156ZM152.758 22.758L154.172 21.3438L157 24.1722L159.829 21.3438L161.243 22.758L157 27.0006L152.758 22.758Z" fill="#241B1B"/>
</svg>
